<svg width="91" height="91" viewBox="0 0 91 91" fill="none" xmlns="http://www.w3.org/2000/svg">
<path d="M45.2876 90.58C20.3157 90.58 0 70.2624 0 45.29C0 20.3176 20.3157 0 45.2876 0C70.2595 0 90.5767 20.3176 90.5767 45.29C90.5767 70.2624 70.2595 90.58 45.2876 90.58ZM45.2876 3.81697C22.4198 3.81697 3.81665 22.4217 3.81665 45.29C3.81665 68.1588 22.4195 86.763 45.2876 86.763C68.1559 86.763 86.7598 68.1586 86.7598 45.29C86.7598 22.4217 68.1559 3.81697 45.2876 3.81697Z" fill="#FF0000"/>
<path d="M15.5017 64.4726C14.843 64.4726 14.203 64.1306 13.8491 63.5198C10.6619 58.0102 8.97577 51.7167 8.97577 45.3171C8.97577 40.2055 10.0149 35.2614 12.0659 30.6239C12.4902 29.6604 13.6149 29.2198 14.5809 29.6498C15.5458 30.0755 15.9809 31.2014 15.5552 32.1649C13.7214 36.3157 12.7924 40.7406 12.7924 45.3174C12.7924 51.0463 14.2987 56.6796 17.1521 61.609C17.6793 62.5206 17.3676 63.6878 16.456 64.2162C16.1552 64.39 15.8264 64.4726 15.5017 64.4726Z" fill="#FF0000"/>
<path d="M75.6135 30.8922C74.9359 30.8922 74.2801 30.5301 73.9342 29.8914C68.249 19.3873 57.3047 12.8626 45.3717 12.8626C44.3179 12.8626 43.4634 12.0081 43.4634 10.9543C43.4634 9.90041 44.3179 9.0459 45.3717 9.0459C58.7061 9.0459 70.9373 16.3388 77.2902 28.0763C77.792 29.0026 77.4471 30.1604 76.5198 30.6622C76.2308 30.8177 75.9211 30.8922 75.6135 30.8922Z" fill="#FF0000"/>
<path d="M53.7225 80.5686C52.8668 80.5686 52.0895 79.9896 51.8728 79.1219C51.617 78.0998 52.2399 77.0643 53.2619 76.809C61.7244 74.697 69.0969 69.1344 73.487 61.5474C74.0168 60.6372 75.1851 60.3231 76.0941 60.8513C77.0054 61.3796 77.3169 62.5468 76.79 63.4582C71.8833 71.9341 63.6448 78.149 54.1856 80.5113C54.0311 80.5498 53.8756 80.5686 53.7225 80.5686Z" fill="#FF0000"/>
</svg>
